<svg width="679" height="682" viewBox="0 0 679 682" fill="none" xmlns="http://www.w3.org/2000/svg">
<path d="M281.91 1.42278C293.376 5.15612 302.043 12.7561 307.91 23.9561C310.176 28.3561 310.976 32.7561 311.51 44.0895L312.31 58.7561L412.976 117.156L513.643 175.556H555.376C578.71 175.556 601.376 176.223 606.71 177.023C638.71 181.823 664.843 203.823 675.376 234.756L678.976 245.556V340.223V434.889L675.91 444.889C668.176 469.823 649.51 490.356 626.043 499.689C612.443 505.156 601.51 506.089 556.31 506.223H513.643L412.976 564.623L312.31 623.023L311.51 637.689C310.976 649.156 310.176 653.423 307.776 657.956C303.243 666.623 296.176 673.689 287.91 677.823C281.51 681.023 278.71 681.556 269.643 681.556C255.776 681.423 247.376 677.956 238.443 668.089C226.176 654.756 227.11 664.489 226.31 527.689L225.643 407.156L220.176 405.556C192.576 397.423 171.643 369.556 171.643 340.889C171.643 312.223 192.576 284.356 220.176 276.223L225.643 274.623L226.31 241.023L226.976 207.289L231.376 203.423C237.243 198.089 243.776 198.089 249.11 203.423L252.976 207.289V424.223C252.976 662.756 252.443 647.423 261.243 652.889C266.443 656.089 271.643 656.223 276.976 653.556C285.643 649.156 284.976 673.823 284.976 340.889C284.976 7.95612 285.643 32.6228 276.976 28.2228C271.643 25.5561 266.443 25.6895 261.243 28.8895C253.776 33.4228 252.976 37.4228 252.976 68.8895C252.976 100.489 252.443 102.356 243.776 105.023C237.11 107.023 230.843 103.956 228.043 97.2895C225.11 89.9561 226.176 36.2228 229.51 27.1561C232.843 18.2228 243.243 7.28945 251.91 3.55612C260.576 -0.177217 274.176 -1.11055 281.91 1.42278ZM313.243 466.089L313.643 591.156L404.976 538.223L496.31 485.289V340.889V196.623L404.976 143.556L313.643 90.4895L313.243 215.689C313.11 284.623 313.11 397.156 313.243 466.089ZM524.976 341.023V478.356L567.243 477.956L609.643 477.556L618.31 473.423C636.71 464.623 649.11 447.823 651.643 428.089C653.243 416.223 653.243 265.689 651.776 253.956C649.51 236.889 638.71 219.823 625.11 211.823C611.776 203.956 609.243 203.689 565.243 203.556H524.976V341.023ZM212.71 310.489C209.643 312.756 206.043 317.823 203.376 323.156C199.776 330.356 199.11 333.423 199.11 340.889C199.11 356.356 207.643 370.089 221.91 377.423L226.31 379.689V340.889V302.089L221.91 304.356C219.643 305.556 215.376 308.356 212.71 310.489Z" fill="white"/>
<path d="M249.11 143.423C256.31 150.623 253.376 162.09 243.776 165.023C237.11 167.023 230.843 163.956 228.176 157.423C225.776 151.556 226.843 147.156 231.91 142.89C237.51 138.223 244.043 138.356 249.11 143.423Z" fill="white"/>
<path d="M84.443 167.423C88.843 169.289 92.9763 175.423 92.9763 180.223C92.9763 183.823 90.9763 187.023 81.5097 197.689C29.243 257.423 13.243 335.689 38.1763 410.223C46.9763 436.089 61.7763 461.556 81.5097 484.089C94.843 499.156 95.9096 502.889 89.1096 510.489C85.9096 514.089 84.3097 514.889 79.5097 514.889C74.1763 514.889 73.3763 514.223 63.643 503.823C35.5097 473.823 13.5097 431.289 5.10966 390.223C-6.22368 335.689 1.37632 280.089 27.1097 230.223C37.3763 210.356 49.643 192.756 63.5097 178.223C73.9097 167.156 78.3097 164.889 84.443 167.423Z" fill="white"/>
<path d="M130.176 211.156C136.843 217.289 136.176 224.223 128.443 232.623C107.776 254.889 92.7096 285.023 87.5096 314.223C86.5763 319.689 85.7763 331.689 85.7763 340.889C85.7763 350.089 86.5763 362.09 87.5096 367.556C92.5763 396.356 108.443 428.223 127.643 448.223C133.643 454.49 135.643 458.89 134.71 463.956C133.643 469.29 127.11 474.223 121.243 474.223C116.843 474.223 115.243 473.156 106.843 464.356C84.5763 441.29 67.6429 407.29 61.5096 372.89C58.4429 355.956 58.4429 325.823 61.5096 308.889C67.6429 274.489 84.5763 240.489 106.843 217.423C115.243 208.623 116.843 207.556 121.243 207.556C124.843 207.556 127.376 208.623 130.176 211.156Z" fill="white"/>
<path d="M171.91 252.756C175.376 255.823 176.31 257.689 176.31 261.689C176.176 266.089 174.976 268.356 168.043 276.623C158.443 287.956 150.043 304.356 146.843 317.556C143.776 329.689 143.776 351.823 146.843 364.223C150.043 377.423 158.31 393.556 168.043 405.023C174.976 413.289 176.31 415.556 176.31 419.956C176.31 426.889 169.91 432.889 162.71 432.889C158.31 432.889 156.71 431.823 150.176 424.889C135.91 410.089 124.976 389.023 120.043 367.289C118.71 361.023 117.91 351.556 117.91 340.889C117.91 330.223 118.71 320.756 120.043 314.489C124.976 292.756 135.91 271.689 150.176 256.889C156.71 249.956 158.31 248.889 162.71 248.889C166.176 248.889 168.843 249.956 171.91 252.756Z" fill="white"/>
</svg>
